<svg aria-hidden="true" style="position: absolute; width: 0; height: 0; overflow: hidden;" version="1.1" xmlns="http://www.w3.org/2000/svg" xmlns:xlink="http://www.w3.org/1999/xlink">
<defs>
<symbol id="icon-email" viewBox="0 0 32 32">
<path stroke="#fff" style="stroke: var(--color1, #fff)" stroke-linejoin="round" stroke-linecap="round" stroke-miterlimit="4" stroke-width="2" d="M23.87 11.802l-5.924 4.817c-1.119 0.888-2.694 0.888-3.814 0l-5.974-4.817"></path>
<path  stroke="#fff" style="stroke: var(--color1, #fff)" stroke-linejoin="round" stroke-linecap="round" stroke-miterlimit="4" stroke-width="2" d="M22.545 28c4.055 0.011 6.788-3.321 6.788-7.415v-9.158c0-4.095-2.733-7.427-6.788-7.427h-13.090c-4.055 0-6.788 3.332-6.788 7.427v9.158c0 4.095 2.733 7.427 6.788 7.415h13.090z"></path>
</symbol>
<symbol id="icon-geo" viewBox="0 0 32 32">
<path fill="none" stroke="#fff" style="stroke: var(--color1, #fff)" stroke-linejoin="round" stroke-linecap="round" stroke-miterlimit="4" stroke-width="2" d="M19.333 14.001c0-1.842-1.492-3.334-3.333-3.334-1.842 0-3.334 1.492-3.334 3.334 0 1.84 1.492 3.333 3.334 3.333 1.84 0 3.333-1.492 3.333-3.333z"></path>
<path fill="none" stroke="#fff" style="stroke: var(--color1, #fff)" stroke-linejoin="round" stroke-linecap="round" stroke-miterlimit="4" stroke-width="2" d="M15.999 28c-1.598 0-9.999-6.802-9.999-13.916 0-5.569 4.476-10.084 9.999-10.084s10.001 4.516 10.001 10.084c0 7.113-8.403 13.916-10.001 13.916z"></path>
</symbol>
<symbol id="icon-ic-facebook" viewBox="0 0 18 32">
<path fill="#fff" style="fill: var(--color1, #fff)" opacity="0.8" d="M5.273 31.242v-14.137h-3.738v-5.090h3.738v-4.348c0-3.416 2.208-6.554 7.296-6.554 2.060 0 3.583 0.198 3.583 0.198l-0.12 4.753c0 0-1.554-0.015-3.249-0.015-1.835 0-2.129 0.846-2.129 2.249v3.717h5.524l-0.24 5.090h-5.283v14.137h-5.382z"></path>
</symbol>
<symbol id="icon-ic-instagram" viewBox="0 0 32 32">
<path fill="#fff" style="fill: var(--color1, #fff)" opacity="0.8" d="M15.199 10.992c-2.782 0-5.053 2.271-5.053 5.053s2.271 5.053 5.053 5.053 5.053-2.271 5.053-5.053c0-2.782-2.271-5.053-5.053-5.053zM30.354 16.045c0-2.093 0.019-4.166-0.099-6.255-0.117-2.426-0.671-4.579-2.445-6.353-1.778-1.778-3.927-2.328-6.354-2.445-2.092-0.117-4.166-0.099-6.255-0.099-2.093 0-4.166-0.019-6.255 0.099-2.426 0.117-4.579 0.671-6.353 2.445-1.778 1.778-2.328 3.927-2.445 6.353-0.117 2.093-0.099 4.166-0.099 6.255s-0.019 4.166 0.099 6.255c0.117 2.426 0.671 4.579 2.445 6.354 1.778 1.778 3.927 2.328 6.353 2.445 2.093 0.117 4.166 0.099 6.255 0.099 2.093 0 4.166 0.019 6.255-0.099 2.426-0.117 4.579-0.671 6.354-2.445 1.778-1.778 2.328-3.927 2.445-6.354 0.121-2.089 0.099-4.162 0.099-6.255zM15.199 23.82c-4.303 0-7.775-3.472-7.775-7.775s3.472-7.775 7.775-7.775c4.303 0 7.775 3.472 7.775 7.775s-3.472 7.775-7.775 7.775zM23.292 9.767c-1.004 0-1.816-0.811-1.816-1.816s0.811-1.816 1.816-1.816c1.005 0 1.816 0.811 1.816 1.816 0 0.239-0.047 0.475-0.138 0.695s-0.225 0.421-0.394 0.589c-0.169 0.169-0.369 0.302-0.589 0.394s-0.457 0.138-0.695 0.138z"></path>
</symbol>
<symbol id="icon-icon-1" viewBox="0 0 32 32">
<path fill="#fff" style="fill: var(--color1, #fff)" d="M2.931 28.132h13.069v-1.007h-13.069c-0.833 0-1.508-0.676-1.508-1.51v-22.141c0-0.834 0.675-1.51 1.508-1.51h22.117c0.833 0 1.508 0.676 1.508 1.51v11.574h1.006v-11.574c-0.002-1.389-1.126-2.514-2.514-2.516h-22.117c-1.387 0.002-2.511 1.127-2.513 2.516v22.141c0.002 1.389 1.126 2.514 2.513 2.516z"></path>
<path fill="#fff" style="fill: var(--color1, #fff)" d="M2.428 2.972h1.005v1.006h-1.005v-1.006z"></path>
<path fill="#fff" style="fill: var(--color1, #fff)" d="M4.439 2.972h1.006v1.006h-1.006v-1.006z"></path>
<path fill="#fff" style="fill: var(--color1, #fff)" d="M6.449 2.972h1.005v1.006h-1.005v-1.006z"></path>
<path fill="#fff" style="fill: var(--color1, #fff)" d="M2.428 4.984h23.122v1.007h-23.122v-1.007z"></path>
<path fill="#fff" style="fill: var(--color1, #fff)" d="M7.602 7.145l-1.277 1.278c-1.079-0.715-2.524-0.496-3.344 0.508s-0.745 2.465 0.17 3.381c0.915 0.916 2.375 0.99 3.378 0.17s1.222-2.267 0.507-3.347l1.277-1.278-0.711-0.712zM4.941 12.029c-0.833 0-1.508-0.676-1.508-1.509s0.675-1.51 1.508-1.51c0.224 0.001 0.445 0.052 0.646 0.151l-1.001 1.002 0.711 0.712 1.002-1.002c0.098 0.201 0.15 0.422 0.151 0.647 0 0.834-0.675 1.509-1.508 1.509z"></path>
<path fill="#fff" style="fill: var(--color1, #fff)" d="M8.963 9.010h8.545v1.006h-8.545v-1.006z"></path>
<path fill="#fff" style="fill: var(--color1, #fff)" d="M8.963 11.023h3.519v1.006h-3.519v-1.006z"></path>
<path fill="#fff" style="fill: var(--color1, #fff)" d="M13.487 11.023h7.037v1.006h-7.037v-1.006z"></path>
<path fill="#fff" style="fill: var(--color1, #fff)" d="M18.513 9.010h5.027v1.006h-5.027v-1.006z"></path>
<path fill="#fff" style="fill: var(--color1, #fff)" d="M7.602 13.183l-1.277 1.278c-1.079-0.715-2.524-0.496-3.344 0.508s-0.745 2.465 0.17 3.381c0.915 0.916 2.375 0.99 3.378 0.17s1.222-2.266 0.507-3.347l1.277-1.278-0.711-0.712zM4.941 18.068c-0.833 0-1.508-0.676-1.508-1.51s0.675-1.51 1.508-1.51c0.224 0.001 0.445 0.052 0.646 0.151l-1.001 1.003 0.711 0.711 1.002-1.002c0.098 0.201 0.15 0.422 0.151 0.647 0 0.834-0.675 1.51-1.508 1.51z"></path>
<path fill="#fff" style="fill: var(--color1, #fff)" d="M8.963 15.048h8.545v1.006h-8.545v-1.006z"></path>
<path fill="#fff" style="fill: var(--color1, #fff)" d="M8.963 17.061h3.519v1.006h-3.519v-1.006z"></path>
<path fill="#fff" style="fill: var(--color1, #fff)" d="M13.487 17.061h4.021v1.006h-4.021v-1.006z"></path>
<path fill="#fff" style="fill: var(--color1, #fff)" d="M18.513 15.048h2.011v1.006h-2.011v-1.006z"></path>
<path fill="#fff" style="fill: var(--color1, #fff)" d="M7.602 19.222l-1.277 1.278c-1.079-0.715-2.524-0.496-3.344 0.508s-0.745 2.465 0.17 3.381c0.915 0.916 2.375 0.99 3.378 0.17s1.222-2.267 0.507-3.347l1.277-1.278-0.711-0.712zM4.941 24.106c-0.833 0-1.508-0.676-1.508-1.51s0.675-1.51 1.508-1.51c0.224 0.001 0.445 0.052 0.646 0.151l-1.001 1.003 0.711 0.711 1.002-1.002c0.098 0.201 0.15 0.422 0.151 0.647 0 0.834-0.675 1.51-1.508 1.51z"></path>
<path fill="#fff" style="fill: var(--color1, #fff)" d="M8.963 21.087h6.534v1.007h-6.535v-1.007z"></path>
<path fill="#fff" style="fill: var(--color1, #fff)" d="M8.963 23.1h3.519v1.006h-3.519v-1.006z"></path>
<path fill="#fff" style="fill: var(--color1, #fff)" d="M13.487 23.1h2.011v1.006h-2.011v-1.006z"></path>
<path fill="#fff" style="fill: var(--color1, #fff)" d="M24.043 31.151c4.164 0 7.54-3.38 7.54-7.548s-3.375-7.548-7.54-7.548-7.54 3.379-7.54 7.548c0.005 4.167 3.378 7.543 7.54 7.548zM24.043 17.061c3.609 0 6.535 2.929 6.535 6.542s-2.926 6.542-6.535 6.542c-3.609 0-6.535-2.929-6.535-6.542 0.004-3.611 2.927-6.538 6.535-6.542z"></path>
<path fill="#fff" style="fill: var(--color1, #fff)" d="M20.977 23.881l-0.9 0.45 1.005 2.013c0.072 0.145 0.21 0.246 0.369 0.272 0.026 0.004 0.052 0.006 0.078 0.007 0.133 0 0.261-0.053 0.356-0.147l6.032-6.038-0.711-0.712-5.539 5.545-0.69-1.388z"></path>
</symbol>
<symbol id="icon-icon-2" viewBox="0 0 34 32">
<path fill="#fff" style="fill: var(--color1, #fff)" d="M28.264 0.002c-2.599 0-4.652 2.331-4.652 5.235s2.085 5.199 4.652 5.199c2.567 0 4.684-2.331 4.684-5.235s-2.085-5.199-4.684-5.199zM28.264 9.288c-2.021 0-3.657-1.829-3.657-4.087s1.668-4.052 3.657-4.052c2.021 0 3.657 1.829 3.657 4.087s-1.636 4.052-3.657 4.052z"></path>
<path fill="#fff" style="fill: var(--color1, #fff)" d="M29.74 6.025c-0.032-0.108-0.032-0.179-0.096-0.287-0.032-0.072-0.064-0.179-0.128-0.251s-0.096-0.143-0.16-0.215c-0.064-0.072-0.128-0.143-0.225-0.179-0.064-0.072-0.16-0.108-0.225-0.143-0.096-0.036-0.16-0.108-0.257-0.143s-0.192-0.072-0.257-0.108c-0.032 0-0.096-0.036-0.128-0.072s-0.096-0.036-0.128-0.072c-0.032-0.036-0.096-0.036-0.128-0.072s-0.064-0.072-0.096-0.108c-0.032-0.036-0.064-0.072-0.064-0.143-0.032-0.036-0.032-0.108-0.032-0.143 0-0.072 0-0.108 0-0.179 0-0.036 0.032-0.108 0.032-0.143 0.032-0.036 0.032-0.108 0.064-0.143s0.064-0.072 0.096-0.108 0.096-0.072 0.16-0.072c0.064-0.036 0.096-0.036 0.16-0.036 0.032 0 0.064 0 0.096 0s0.064 0 0.096 0 0.096 0 0.16 0.036c0.064 0 0.128 0.036 0.16 0.036s0.096 0.036 0.128 0.036c0.064 0 0.096 0.036 0.128 0.036l0.16 0.072 0.032-0.215 0.064-0.574v-0.143l-0.128-0.036c-0.032 0-0.096-0.036-0.128-0.036s-0.064-0.036-0.128-0.036c-0.032 0-0.096-0.036-0.16-0.036s-0.096-0.036-0.16-0.036h-0.032v-0.681h-0.77v0.717h-0.032c-0.096 0.036-0.192 0.072-0.289 0.143-0.096 0.036-0.16 0.108-0.225 0.179s-0.128 0.143-0.192 0.251c-0.064 0.072-0.096 0.179-0.128 0.287s-0.064 0.215-0.096 0.323c-0.032 0.108-0.032 0.251-0.032 0.359s0 0.179 0.032 0.287c0.032 0.108 0.032 0.179 0.096 0.287 0.032 0.072 0.096 0.179 0.128 0.251 0.064 0.072 0.096 0.143 0.16 0.215s0.128 0.143 0.225 0.179c0.064 0.072 0.16 0.108 0.225 0.143 0.096 0.036 0.192 0.108 0.257 0.143 0.096 0.036 0.192 0.072 0.257 0.108 0.032 0 0.096 0.036 0.128 0.072s0.096 0.036 0.128 0.072c0.032 0.036 0.064 0.072 0.096 0.072 0.032 0.036 0.064 0.072 0.096 0.108s0.032 0.072 0.064 0.143c0 0.036 0.032 0.108 0.032 0.179s0 0.108 0 0.179c0 0.036-0.032 0.108-0.064 0.143s-0.064 0.072-0.096 0.108c-0.032 0.036-0.064 0.072-0.128 0.108-0.032 0.036-0.096 0.036-0.128 0.072-0.032 0-0.096 0.036-0.16 0.036-0.032 0-0.064 0-0.128 0-0.032 0-0.096 0-0.128 0-0.064 0-0.128 0-0.16 0-0.064 0-0.128-0.036-0.16-0.036-0.064 0-0.128-0.036-0.192-0.072s-0.128-0.036-0.192-0.072c-0.032 0-0.064-0.036-0.096-0.036s-0.064-0.036-0.096-0.036l-0.192-0.108-0.032 0.251-0.064 0.645v0.108l0.096 0.036c0.128-0.036 0.192 0 0.289 0.036 0.064 0.036 0.16 0.072 0.225 0.072 0.064 0.036 0.16 0.036 0.257 0.072s0.16 0.036 0.257 0.036h0.064v0.717h0.77v-0.753h0.032c0.096-0.036 0.192-0.072 0.289-0.143 0.096-0.036 0.16-0.108 0.257-0.179 0.064-0.072 0.128-0.143 0.192-0.251 0.064-0.072 0.096-0.179 0.16-0.287 0.032-0.108 0.064-0.215 0.096-0.323s0.032-0.215 0.032-0.359c0-0.108 0-0.179-0.032-0.287z"></path>
<path fill="#fff" style="fill: var(--color1, #fff)" d="M26.018 11.117c-0.16-0.251-0.513-0.287-0.738-0.108l-5.197 4.625-6.705-3.119c-0.16-0.072-0.353-0.036-0.481 0.072l-7.186 5.737c-0.225 0.179-0.289 0.538-0.128 0.789 0.096 0.179 0.257 0.251 0.417 0.251 0.096 0 0.192-0.036 0.289-0.108l6.962-5.557 6.737 3.119c0.16 0.072 0.385 0.036 0.513-0.072l5.422-4.804c0.225-0.179 0.257-0.574 0.096-0.825z"></path>
<path fill="#fff" style="fill: var(--color1, #fff)" d="M33.526 30.765h-2.374v-16.601c0-0.323-0.225-0.574-0.513-0.574h-4.716c-0.289 0-0.513 0.251-0.513 0.574v16.601h-1.732v-10.864c0-0.323-0.225-0.574-0.513-0.574h-4.748c-0.289 0-0.513 0.251-0.513 0.574v10.864h-1.732v-11.724c0-0.323-0.225-0.574-0.513-0.574h-4.716c-0.289 0-0.513 0.251-0.513 0.574v11.724h-1.732v-8.354c0-0.323-0.225-0.574-0.513-0.574h-4.748c-0.289 0-0.513 0.251-0.513 0.574v8.354h-2.406c-0.289 0-0.513 0.251-0.513 0.574s0.225 0.574 0.513 0.574h32.98c0.289 0 0.513-0.251 0.513-0.574 0.032-0.323-0.193-0.574-0.481-0.574zM7.635 30.765h-3.689v-7.78h3.689v7.78zM15.143 30.765h-3.689v-11.151h3.689v11.151zM22.618 30.765h-3.689v-10.29h3.689v10.29zM30.125 30.765h-3.689v-16.027h3.689v16.027z"></path>
</symbol>
<symbol id="icon-icon-3" viewBox="0 0 34 32">
<path fill="#fff" style="fill: var(--color1, #fff)" d="M20.611 26.241c0.721 0 1.308-0.549 1.308-1.222s-0.587-1.222-1.308-1.222c-0.568 0-1.047 0.342-1.228 0.815h-1.825v-2.445h1.825c0.18 0.473 0.66 0.815 1.228 0.815 0.721 0 1.308-0.548 1.308-1.222s-0.587-1.222-1.308-1.222c-0.568 0-1.047 0.342-1.228 0.815h-1.825v-2.445h1.825c0.18 0.473 0.66 0.815 1.228 0.815 0.721 0 1.308-0.548 1.308-1.222s-0.587-1.222-1.308-1.222c-0.568 0-1.047 0.342-1.228 0.815h-1.825v-0.815h-0.872v-1.705c0.506-0.169 0.872-0.617 0.872-1.147 0-0.674-0.587-1.222-1.308-1.222s-1.308 0.549-1.308 1.222c0 0.531 0.366 0.979 0.872 1.147v1.705h-2.616v-1.705c0.506-0.169 0.872-0.617 0.872-1.147 0-0.674-0.587-1.222-1.308-1.222s-1.308 0.549-1.308 1.222c0 0.531 0.366 0.979 0.872 1.147v1.705h-2.616v-1.705c0.506-0.169 0.872-0.617 0.872-1.147 0-0.674-0.587-1.222-1.308-1.222s-1.308 0.549-1.308 1.222c0 0.531 0.366 0.979 0.872 1.147v1.705h-0.872v0.815h-1.825c-0.181-0.473-0.66-0.815-1.228-0.815-0.721 0-1.308 0.548-1.308 1.222s0.587 1.222 1.308 1.222c0.568 0 1.047-0.342 1.228-0.815h1.825v2.445h-1.825c-0.181-0.473-0.66-0.815-1.228-0.815-0.721 0-1.308 0.548-1.308 1.222s0.587 1.222 1.308 1.222c0.568 0 1.047-0.342 1.228-0.815h1.825v2.445h-1.825c-0.181-0.473-0.66-0.815-1.228-0.815-0.721 0-1.308 0.549-1.308 1.222s0.587 1.222 1.308 1.222c0.568 0 1.047-0.342 1.228-0.815h1.825v0.815h0.872v1.705c-0.506 0.169-0.872 0.617-0.872 1.147 0 0.674 0.587 1.222 1.308 1.222s1.308-0.549 1.308-1.222c0-0.531-0.366-0.979-0.872-1.147v-1.705h2.616v1.705c-0.506 0.169-0.872 0.617-0.872 1.147 0 0.674 0.587 1.222 1.308 1.222s1.308-0.549 1.308-1.222c0-0.531-0.366-0.979-0.872-1.147v-1.705h2.616v1.705c-0.506 0.169-0.872 0.617-0.872 1.147 0 0.674 0.587 1.222 1.308 1.222s1.308-0.549 1.308-1.222c0-0.531-0.366-0.979-0.872-1.147v-1.705h0.872v-0.815h1.825c0.18 0.473 0.66 0.815 1.228 0.815zM20.611 24.611c0.241 0 0.436 0.183 0.436 0.408s-0.195 0.407-0.436 0.407c-0.241 0-0.436-0.183-0.436-0.407s0.195-0.408 0.436-0.408zM20.611 21.351c0.241 0 0.436 0.183 0.436 0.407s-0.195 0.407-0.436 0.407c-0.241 0-0.436-0.183-0.436-0.407s0.195-0.407 0.436-0.407zM20.611 18.092c0.241 0 0.436 0.183 0.436 0.407s-0.195 0.407-0.436 0.407c-0.241 0-0.436-0.183-0.436-0.407s0.195-0.407 0.436-0.407zM4.913 18.907c-0.241 0-0.436-0.183-0.436-0.407s0.195-0.407 0.436-0.407 0.436 0.183 0.436 0.407c0 0.225-0.195 0.407-0.436 0.407zM4.913 22.166c-0.241 0-0.436-0.183-0.436-0.407s0.195-0.407 0.436-0.407 0.436 0.183 0.436 0.407c0 0.225-0.195 0.407-0.436 0.407zM4.913 25.426c-0.241 0-0.436-0.183-0.436-0.407s0.195-0.408 0.436-0.408 0.436 0.183 0.436 0.408c0 0.225-0.195 0.407-0.436 0.407zM16.251 14.017c0.241 0 0.436 0.183 0.436 0.407s-0.195 0.407-0.436 0.407c-0.241 0-0.436-0.183-0.436-0.407s0.195-0.407 0.436-0.407zM12.762 14.017c0.241 0 0.436 0.183 0.436 0.407s-0.195 0.407-0.436 0.407c-0.241 0-0.436-0.183-0.436-0.407s0.195-0.407 0.436-0.407zM9.274 14.017c0.241 0 0.436 0.183 0.436 0.407s-0.195 0.407-0.436 0.407c-0.241 0-0.436-0.183-0.436-0.407s0.195-0.407 0.436-0.407zM9.274 29.501c-0.241 0-0.436-0.183-0.436-0.407s0.195-0.407 0.436-0.407c0.241 0 0.436 0.183 0.436 0.407s-0.195 0.407-0.436 0.407zM12.762 29.501c-0.241 0-0.436-0.183-0.436-0.407s0.195-0.407 0.436-0.407c0.241 0 0.436 0.183 0.436 0.407s-0.195 0.407-0.436 0.407zM16.251 29.501c-0.241 0-0.436-0.183-0.436-0.407s0.195-0.407 0.436-0.407c0.241 0 0.436 0.183 0.436 0.407s-0.195 0.407-0.436 0.407zM16.687 25.426h-7.849v-7.335h7.849v7.334z"></path>
<path fill="#fff" style="fill: var(--color1, #fff)" d="M28.676 11.572v0c-0.163-0.589-0.413-1.152-0.747-1.68l1.391-1.3-2.467-2.305-1.391 1.3c-0.565-0.313-1.167-0.547-1.798-0.699v-1.836h-3.489v1.836c-0.631 0.152-1.233 0.386-1.798 0.698l-1.391-1.3-2.467 2.305 1.391 1.3c-0.334 0.528-0.585 1.091-0.747 1.68h-1.528v0.815h2.232l0.071-0.326c0.155-0.713 0.454-1.387 0.89-2.003l0.197-0.277-1.272-1.189 1.234-1.152 1.272 1.189 0.297-0.184c0.658-0.407 1.379-0.687 2.143-0.832l0.349-0.066v-1.678h1.744v1.678l0.349 0.066c0.764 0.145 1.485 0.425 2.143 0.832l0.297 0.184 1.272-1.189 1.234 1.152-1.272 1.189 0.197 0.277c0.436 0.616 0.736 1.289 0.89 2.003l0.071 0.326h1.796v1.63h-1.796l-0.071 0.326c-0.155 0.713-0.454 1.387-0.89 2.002l-0.197 0.278 1.272 1.189-1.234 1.153-1.272-1.189-0.297 0.184c-0.659 0.407-1.38 0.688-2.143 0.832l-0.349 0.066v2.085h0.872v-1.428c0.63-0.152 1.233-0.385 1.798-0.698l1.391 1.299 2.467-2.305-1.391-1.3c0.334-0.528 0.585-1.091 0.747-1.68h1.964v-3.26h-1.964z"></path>
<path fill="#fff" style="fill: var(--color1, #fff)" d="M21.919 16.462v0.815c2.404 0 4.361-1.828 4.361-4.075s-1.956-4.075-4.361-4.075c-2.404 0-4.361 1.828-4.361 4.075h0.872c0-1.797 1.565-3.26 3.489-3.26s3.488 1.462 3.488 3.26c0 1.797-1.565 3.26-3.489 3.26z"></path>
<path fill="#fff" style="fill: var(--color1, #fff)" d="M15.815 18.907h-6.105v0.815h6.105v-0.815z"></path>
<path fill="#fff" style="fill: var(--color1, #fff)" d="M15.815 23.796h-0.872v0.815h0.872v-0.815z"></path>
<path fill="#fff" style="fill: var(--color1, #fff)" d="M14.070 23.796h-4.361v0.815h4.361v-0.815z"></path>
<path fill="#fff" style="fill: var(--color1, #fff)" d="M19.652 29.264l0.174 0.799c5.324-1.010 9.463-4.877 10.544-9.853l-0.855-0.162c-1.010 4.654-4.882 8.272-9.862 9.216z"></path>
<path fill="#fff" style="fill: var(--color1, #fff)" d="M14.593 6.104l-0.174-0.799c-5.324 1.010-9.463 4.877-10.544 9.853l0.855 0.162c1.010-4.653 4.882-8.271 9.862-9.216z"></path>
</symbol>
<symbol id="icon-icon-4" viewBox="0 0 33 32">
<path fill="#fff" style="fill: var(--color1, #fff)" d="M16.604 25.43c-1.936 0-3.828-0.553-5.437-1.589s-2.864-2.509-3.604-4.232c-0.741-1.723-0.934-3.619-0.557-5.449s1.31-3.51 2.678-4.829c1.369-1.319 3.112-2.217 5.011-2.581s3.866-0.177 5.654 0.537c1.788 0.714 3.317 1.922 4.392 3.473s1.649 3.374 1.649 5.239c-0.003 2.5-1.035 4.897-2.87 6.665s-4.322 2.762-6.917 2.765v0zM16.604 7.434c-1.758 0-3.477 0.502-4.938 1.444s-2.601 2.279-3.274 3.844-0.849 3.287-0.506 4.949c0.343 1.662 1.19 3.188 2.433 4.386s2.827 2.014 4.551 2.344 3.512 0.161 5.136-0.487c1.624-0.648 3.012-1.746 3.989-3.155s1.498-3.065 1.498-4.759c-0.003-2.271-0.94-4.448-2.607-6.054s-3.926-2.509-6.282-2.512z"></path>
<path fill="#fff" style="fill: var(--color1, #fff)" d="M16.604 23.196c-1.477 0-2.921-0.422-4.149-1.213s-2.185-1.914-2.75-3.229c-0.565-1.315-0.713-2.762-0.425-4.158s0.999-2.678 2.044-3.684c1.044-1.006 2.375-1.692 3.823-1.969s2.95-0.135 4.314 0.409c1.364 0.545 2.531 1.467 3.351 2.65s1.258 2.575 1.258 3.998c-0.002 1.908-0.79 3.737-2.19 5.086s-3.298 2.108-5.278 2.11v0zM16.604 9.669c-1.299 0-2.57 0.371-3.65 1.067s-1.922 1.684-2.42 2.841c-0.497 1.157-0.627 2.43-0.374 3.658s0.879 2.356 1.798 3.241c0.919 0.885 2.089 1.488 3.364 1.733s2.595 0.119 3.796-0.36c1.2-0.479 2.227-1.291 2.948-2.332s1.107-2.265 1.107-3.517c-0.002-1.678-0.695-3.288-1.926-4.474s-2.901-1.854-4.643-1.856v0z"></path>
<path fill="#fff" style="fill: var(--color1, #fff)" d="M17.351 16.138h-2.282c-0.119 0-0.233-0.046-0.317-0.127s-0.131-0.191-0.131-0.306v-3.535c0-0.115 0.047-0.225 0.131-0.306s0.198-0.127 0.317-0.127h2.282c0.302-0.004 0.603 0.050 0.884 0.159s0.536 0.27 0.752 0.475c0.215 0.205 0.386 0.449 0.503 0.718s0.177 0.558 0.177 0.849c0 0.291-0.060 0.58-0.177 0.849s-0.288 0.513-0.503 0.718c-0.215 0.205-0.471 0.366-0.752 0.475s-0.581 0.163-0.884 0.159v0zM15.518 15.273h1.834c0.184 0.003 0.367-0.029 0.538-0.095s0.327-0.164 0.458-0.288c0.131-0.124 0.236-0.273 0.307-0.436s0.108-0.339 0.108-0.517-0.037-0.353-0.108-0.517c-0.071-0.164-0.176-0.312-0.307-0.436s-0.287-0.222-0.458-0.288c-0.171-0.066-0.354-0.098-0.538-0.095h-1.834v2.67z"></path>
<path fill="#fff" style="fill: var(--color1, #fff)" d="M17.934 19.676h-2.865c-0.119 0-0.233-0.046-0.317-0.127s-0.131-0.191-0.131-0.306v-3.537c0-0.115 0.047-0.225 0.131-0.306s0.198-0.127 0.317-0.127h2.865c0.606 0 1.186 0.232 1.614 0.644s0.669 0.972 0.669 1.556c0 0.584-0.241 1.143-0.669 1.556s-1.009 0.644-1.614 0.644v0.002zM15.518 18.811h2.417c0.368 0 0.72-0.141 0.98-0.391s0.406-0.59 0.406-0.944c0-0.354-0.146-0.694-0.406-0.944s-0.612-0.391-0.98-0.391h-2.417v2.671z"></path>
<path fill="#fff" style="fill: var(--color1, #fff)" d="M15.069 12.603h-0.655c-0.119 0-0.233-0.046-0.317-0.127s-0.131-0.191-0.131-0.306c0-0.115 0.047-0.225 0.131-0.306s0.198-0.127 0.317-0.127h0.655c0.119 0 0.233 0.046 0.317 0.127s0.131 0.191 0.131 0.306c0 0.115-0.047 0.225-0.131 0.306s-0.198 0.127-0.317 0.127z"></path>
<path fill="#fff" style="fill: var(--color1, #fff)" d="M15.437 12.603c-0.119 0-0.233-0.046-0.317-0.127s-0.131-0.191-0.131-0.306v-0.796c0-0.115 0.047-0.225 0.131-0.306s0.198-0.127 0.317-0.127c0.119 0 0.233 0.046 0.317 0.127s0.131 0.191 0.131 0.306v0.796c0 0.115-0.047 0.225-0.131 0.306s-0.198 0.127-0.317 0.127z"></path>
<path fill="#fff" style="fill: var(--color1, #fff)" d="M16.866 12.603c-0.119 0-0.233-0.046-0.317-0.127s-0.131-0.191-0.131-0.306v-0.796c0-0.115 0.047-0.225 0.131-0.306s0.198-0.127 0.317-0.127c0.119 0 0.233 0.046 0.317 0.127s0.131 0.191 0.131 0.306v0.796c0 0.115-0.047 0.225-0.131 0.306s-0.198 0.127-0.317 0.127z"></path>
<path fill="#fff" style="fill: var(--color1, #fff)" d="M15.437 20.469c-0.119 0-0.233-0.046-0.317-0.127s-0.131-0.191-0.131-0.306v-0.794c0-0.115 0.047-0.225 0.131-0.306s0.198-0.127 0.317-0.127c0.119 0 0.233 0.046 0.317 0.127s0.131 0.191 0.131 0.306v0.795c-0 0.114-0.048 0.224-0.132 0.305s-0.198 0.126-0.317 0.126z"></path>
<path fill="#fff" style="fill: var(--color1, #fff)" d="M16.866 20.469c-0.119 0-0.233-0.046-0.317-0.127s-0.131-0.191-0.131-0.306v-0.794c0-0.115 0.047-0.225 0.131-0.306s0.198-0.127 0.317-0.127c0.119 0 0.233 0.046 0.317 0.127s0.131 0.191 0.131 0.306v0.795c-0 0.114-0.048 0.224-0.132 0.305s-0.198 0.126-0.317 0.126z"></path>
<path fill="#fff" style="fill: var(--color1, #fff)" d="M15.069 19.676h-0.655c-0.119 0-0.233-0.046-0.317-0.127s-0.131-0.191-0.131-0.306c0-0.115 0.047-0.225 0.131-0.306s0.198-0.127 0.317-0.127h0.655c0.119 0 0.233 0.046 0.317 0.127s0.131 0.191 0.131 0.306c0 0.115-0.047 0.225-0.131 0.306s-0.198 0.127-0.317 0.127z"></path>
<path fill="#fff" style="fill: var(--color1, #fff)" d="M16.604 7.434c-0.119 0-0.233-0.046-0.317-0.127s-0.131-0.191-0.131-0.306v-2.999c0-0.115 0.047-0.225 0.131-0.306s0.198-0.127 0.317-0.127c0.119 0 0.233 0.046 0.317 0.127s0.131 0.191 0.131 0.306v2.999c0 0.115-0.047 0.225-0.131 0.306s-0.198 0.127-0.317 0.127z"></path>
<path fill="#fff" style="fill: var(--color1, #fff)" d="M16.604 4.435c-0.366 0-0.725-0.105-1.029-0.301s-0.542-0.475-0.682-0.801c-0.14-0.326-0.177-0.685-0.105-1.031s0.248-0.664 0.507-0.914c0.259-0.25 0.589-0.42 0.948-0.489s0.732-0.034 1.070 0.102c0.339 0.135 0.628 0.364 0.831 0.657s0.312 0.639 0.312 0.992c-0.001 0.473-0.196 0.927-0.543 1.262s-0.818 0.523-1.309 0.523zM16.604 1.73c-0.189 0-0.373 0.054-0.531 0.155s-0.279 0.245-0.352 0.413c-0.072 0.168-0.091 0.353-0.054 0.532s0.128 0.342 0.261 0.471c0.134 0.129 0.304 0.216 0.489 0.252s0.377 0.017 0.552-0.052c0.174-0.070 0.324-0.188 0.429-0.339s0.161-0.329 0.161-0.511c-0-0.244-0.101-0.478-0.28-0.65s-0.422-0.27-0.675-0.27v0z"></path>
<path fill="#fff" style="fill: var(--color1, #fff)" d="M16.604 28.43c-0.119 0-0.233-0.046-0.317-0.127s-0.131-0.191-0.131-0.306v-2.999c0-0.115 0.047-0.225 0.131-0.306s0.198-0.127 0.317-0.127 0.233 0.046 0.317 0.127c0.084 0.081 0.131 0.191 0.131 0.306v2.999c0 0.115-0.047 0.225-0.131 0.306s-0.198 0.127-0.317 0.127z"></path>
<path fill="#fff" style="fill: var(--color1, #fff)" d="M16.604 31.135c-0.366 0-0.725-0.105-1.029-0.301s-0.542-0.475-0.682-0.801c-0.14-0.326-0.177-0.685-0.105-1.031s0.248-0.664 0.507-0.914c0.259-0.25 0.589-0.42 0.948-0.489s0.732-0.034 1.070 0.102c0.339 0.135 0.628 0.364 0.831 0.657s0.312 0.639 0.312 0.992c-0.001 0.473-0.196 0.927-0.543 1.262s-0.818 0.523-1.309 0.523zM16.604 28.43c-0.189 0-0.373 0.054-0.531 0.155s-0.279 0.245-0.352 0.413c-0.072 0.168-0.091 0.353-0.054 0.532s0.128 0.342 0.261 0.471c0.134 0.129 0.304 0.216 0.489 0.252s0.377 0.017 0.552-0.052c0.174-0.070 0.324-0.188 0.429-0.339s0.161-0.329 0.161-0.511c-0-0.244-0.101-0.478-0.28-0.65s-0.422-0.27-0.675-0.27z"></path>
<path fill="#fff" style="fill: var(--color1, #fff)" d="M29.054 16.432h-3.113c-0.119 0-0.233-0.046-0.317-0.127s-0.131-0.191-0.131-0.306c0-0.115 0.047-0.225 0.131-0.306s0.198-0.127 0.317-0.127h3.113c0.119 0 0.233 0.046 0.317 0.127s0.131 0.191 0.131 0.306c0 0.115-0.047 0.225-0.131 0.306s-0.198 0.127-0.317 0.127z"></path>
<path fill="#fff" style="fill: var(--color1, #fff)" d="M30.457 17.785c-0.366 0-0.725-0.105-1.029-0.301s-0.542-0.475-0.682-0.801c-0.14-0.326-0.177-0.685-0.105-1.031s0.248-0.664 0.507-0.914c0.259-0.25 0.589-0.42 0.948-0.489s0.732-0.034 1.070 0.102c0.338 0.135 0.628 0.364 0.831 0.657s0.312 0.639 0.312 0.992c-0.001 0.473-0.196 0.927-0.543 1.262s-0.818 0.523-1.309 0.523zM30.457 15.080c-0.189 0-0.373 0.054-0.531 0.155s-0.279 0.245-0.352 0.413-0.091 0.353-0.054 0.532c0.037 0.179 0.128 0.342 0.261 0.471s0.304 0.216 0.489 0.252 0.377 0.017 0.552-0.052c0.174-0.070 0.324-0.188 0.429-0.339s0.161-0.329 0.161-0.511c-0-0.244-0.101-0.478-0.28-0.65s-0.422-0.27-0.675-0.27z"></path>
<path fill="#fff" style="fill: var(--color1, #fff)" d="M7.266 16.432h-3.113c-0.119 0-0.233-0.046-0.317-0.127s-0.131-0.191-0.131-0.306c0-0.115 0.047-0.225 0.131-0.306s0.198-0.127 0.317-0.127h3.113c0.119 0 0.233 0.046 0.317 0.127s0.131 0.191 0.131 0.306c0 0.115-0.047 0.225-0.131 0.306s-0.198 0.127-0.317 0.127z"></path>
<path fill="#fff" style="fill: var(--color1, #fff)" d="M2.75 17.785c-0.366 0-0.725-0.105-1.029-0.301s-0.542-0.475-0.682-0.801c-0.14-0.326-0.177-0.685-0.105-1.031s0.248-0.664 0.507-0.914c0.259-0.25 0.589-0.42 0.948-0.489s0.732-0.034 1.070 0.102 0.628 0.364 0.831 0.657c0.204 0.294 0.312 0.639 0.312 0.992-0.001 0.473-0.196 0.927-0.543 1.262s-0.818 0.523-1.309 0.523zM2.75 15.080c-0.189 0-0.373 0.054-0.531 0.155s-0.279 0.245-0.352 0.413-0.091 0.353-0.054 0.532c0.037 0.179 0.128 0.342 0.261 0.471s0.304 0.216 0.489 0.252 0.377 0.017 0.552-0.052c0.175-0.070 0.324-0.188 0.429-0.339s0.161-0.329 0.161-0.511c-0-0.244-0.101-0.478-0.28-0.65s-0.422-0.27-0.675-0.27z"></path>
<path fill="#fff" style="fill: var(--color1, #fff)" d="M8.841 26.434h-3.583c-0.119 0-0.233-0.046-0.317-0.127s-0.131-0.191-0.131-0.306c0-0.115 0.047-0.225 0.131-0.306s0.198-0.127 0.317-0.127h3.336l1.795-2.775c0.063-0.098 0.164-0.167 0.28-0.193s0.238-0.007 0.339 0.054c0.101 0.061 0.173 0.158 0.2 0.269s0.007 0.229-0.056 0.327l-1.926 2.978c-0.041 0.063-0.097 0.115-0.165 0.15s-0.143 0.054-0.22 0.053v0z"></path>
<path fill="#fff" style="fill: var(--color1, #fff)" d="M3.854 27.786c-0.366-0-0.724-0.105-1.029-0.301s-0.542-0.475-0.682-0.801c-0.14-0.326-0.177-0.685-0.105-1.031s0.248-0.664 0.507-0.914 0.589-0.42 0.949-0.488c0.359-0.069 0.732-0.033 1.070 0.102s0.628 0.364 0.831 0.657 0.312 0.639 0.312 0.992c-0 0.473-0.196 0.927-0.543 1.262s-0.818 0.523-1.31 0.523zM3.854 25.081c-0.189 0-0.373 0.054-0.53 0.155s-0.279 0.245-0.352 0.413-0.091 0.353-0.054 0.532c0.037 0.178 0.128 0.342 0.261 0.471s0.304 0.216 0.489 0.252c0.185 0.035 0.377 0.017 0.552-0.052s0.324-0.188 0.428-0.339c0.105-0.151 0.161-0.329 0.161-0.511-0-0.244-0.101-0.478-0.28-0.651s-0.422-0.269-0.675-0.27v0z"></path>
<path fill="#fff" style="fill: var(--color1, #fff)" d="M10.77 9.409c-0.076 0-0.151-0.019-0.218-0.054s-0.123-0.087-0.163-0.149l-1.795-2.775h-3.336c-0.119 0-0.233-0.046-0.317-0.127s-0.131-0.191-0.131-0.306c0-0.115 0.047-0.225 0.131-0.306s0.198-0.127 0.317-0.127h3.583c0.076-0 0.151 0.019 0.218 0.054s0.123 0.087 0.163 0.149l1.926 2.978c0.042 0.065 0.066 0.14 0.068 0.217s-0.017 0.153-0.055 0.22c-0.038 0.067-0.095 0.124-0.163 0.163s-0.147 0.060-0.226 0.061z"></path>
<path fill="#fff" style="fill: var(--color1, #fff)" d="M3.854 7.784c-0.366-0-0.724-0.105-1.029-0.301s-0.542-0.475-0.682-0.801c-0.14-0.326-0.177-0.685-0.105-1.031s0.248-0.664 0.507-0.914c0.259-0.25 0.589-0.42 0.949-0.488s0.732-0.033 1.070 0.102c0.338 0.135 0.628 0.364 0.831 0.657s0.312 0.639 0.312 0.992c-0 0.473-0.196 0.927-0.543 1.262s-0.818 0.523-1.31 0.523v0zM3.854 5.078c-0.189 0-0.373 0.054-0.53 0.155s-0.279 0.245-0.352 0.413c-0.072 0.168-0.091 0.353-0.054 0.532s0.128 0.342 0.261 0.471c0.134 0.129 0.304 0.216 0.489 0.252s0.377 0.017 0.552-0.052 0.324-0.188 0.428-0.339c0.105-0.151 0.161-0.329 0.161-0.511-0-0.244-0.101-0.478-0.28-0.651s-0.422-0.269-0.675-0.27v0z"></path>
<path fill="#fff" style="fill: var(--color1, #fff)" d="M27.95 26.434h-3.583c-0.076 0-0.151-0.019-0.218-0.054s-0.123-0.087-0.163-0.149l-1.928-2.978c-0.063-0.097-0.083-0.215-0.056-0.327s0.099-0.209 0.2-0.269c0.101-0.061 0.223-0.080 0.339-0.054s0.217 0.095 0.28 0.193l1.795 2.774h3.336c0.119 0 0.233 0.046 0.317 0.127s0.131 0.191 0.131 0.306c0 0.115-0.047 0.225-0.131 0.306s-0.198 0.127-0.317 0.127h-0.002z"></path>
<path fill="#fff" style="fill: var(--color1, #fff)" d="M29.353 27.786c-0.366 0-0.725-0.105-1.029-0.301s-0.542-0.475-0.682-0.801-0.177-0.685-0.105-1.031c0.072-0.346 0.248-0.664 0.507-0.914s0.589-0.42 0.948-0.489c0.359-0.069 0.732-0.034 1.070 0.102s0.628 0.364 0.831 0.657c0.204 0.294 0.312 0.639 0.312 0.992-0.001 0.473-0.196 0.927-0.543 1.262s-0.818 0.523-1.309 0.523v0zM29.353 25.081c-0.189 0-0.373 0.054-0.531 0.155s-0.279 0.245-0.352 0.413-0.091 0.353-0.054 0.532c0.037 0.179 0.128 0.342 0.261 0.471s0.304 0.216 0.489 0.252 0.377 0.017 0.552-0.052c0.174-0.070 0.324-0.188 0.429-0.339s0.161-0.329 0.161-0.511c-0-0.244-0.101-0.478-0.28-0.65s-0.422-0.27-0.675-0.27v0z"></path>
<path fill="#fff" style="fill: var(--color1, #fff)" d="M22.438 9.409c-0.080-0-0.159-0.021-0.228-0.060s-0.126-0.095-0.165-0.163-0.058-0.144-0.056-0.221c0.002-0.077 0.025-0.152 0.068-0.218l1.926-2.978c0.040-0.062 0.096-0.114 0.163-0.149s0.142-0.054 0.218-0.054h3.585c0.119 0 0.233 0.046 0.317 0.127s0.131 0.191 0.131 0.306-0.047 0.225-0.131 0.306c-0.084 0.081-0.198 0.127-0.317 0.127h-3.334l-1.795 2.775c-0.040 0.062-0.097 0.114-0.163 0.15s-0.142 0.054-0.218 0.054v0z"></path>
<path fill="#fff" style="fill: var(--color1, #fff)" d="M29.353 7.784c-0.366 0-0.725-0.105-1.029-0.301s-0.542-0.475-0.682-0.801c-0.14-0.326-0.177-0.685-0.105-1.031s0.248-0.664 0.507-0.914c0.259-0.25 0.589-0.42 0.948-0.489s0.732-0.034 1.070 0.102 0.628 0.364 0.831 0.657c0.204 0.294 0.312 0.639 0.312 0.992-0.001 0.473-0.196 0.927-0.543 1.261s-0.818 0.523-1.309 0.524v0zM29.353 5.078c-0.189 0-0.373 0.054-0.531 0.155s-0.279 0.245-0.352 0.413c-0.072 0.168-0.091 0.353-0.054 0.532s0.128 0.343 0.261 0.471c0.134 0.129 0.304 0.216 0.489 0.252s0.377 0.017 0.552-0.052c0.174-0.070 0.324-0.188 0.429-0.339s0.161-0.329 0.161-0.511c-0-0.244-0.101-0.478-0.28-0.65s-0.422-0.27-0.675-0.27v0z"></path>
</symbol>
<symbol id="icon-ic-pinterset" viewBox="0 0 25 32">
<path fill="#fff" style="fill: var(--color1, #fff)" opacity="0.8" d="M1.637 11.921c0-1.303 0.228-2.533 0.676-3.682 0.429-1.116 1.066-2.139 1.877-3.017 0.81-0.866 1.736-1.615 2.753-2.225 1.043-0.631 2.172-1.107 3.352-1.413 1.194-0.314 2.424-0.472 3.658-0.47 1.907 0 3.682 0.403 5.328 1.207 1.624 0.789 3.007 2 4.003 3.506 1.028 1.532 1.539 3.265 1.539 5.197 0 1.159-0.114 2.292-0.347 3.4-0.228 1.108-0.592 2.183-1.082 3.203-0.467 0.987-1.077 1.899-1.812 2.707-0.738 0.795-1.631 1.43-2.625 1.865-1.079 0.473-2.246 0.711-3.424 0.698-0.819 0-1.636-0.193-2.443-0.579-0.807-0.385-1.386-0.914-1.735-1.592-0.122 0.47-0.29 1.15-0.512 2.039-0.214 0.887-0.358 1.46-0.422 1.72-0.067 0.258-0.191 0.688-0.372 1.284-0.123 0.441-0.28 0.871-0.47 1.287l-0.576 1.129c-0.249 0.484-0.528 0.953-0.834 1.403-0.303 0.439-0.678 0.963-1.125 1.566l-0.249 0.089-0.166-0.181c-0.179-1.897-0.271-3.032-0.271-3.407 0-1.11 0.132-2.356 0.393-3.739 0.256-1.381 0.661-3.117 1.205-5.205 0.544-2.086 0.856-3.313 0.939-3.677-0.383-0.782-0.578-1.803-0.578-3.059 0-1.003 0.313-1.942 0.941-2.826 0.63-0.881 1.425-1.321 2.389-1.321 0.738 0 1.311 0.244 1.721 0.735 0.412 0.489 0.613 1.105 0.613 1.857 0 0.797-0.265 1.951-0.797 3.459-0.532 1.51-0.797 2.637-0.797 3.385 0 0.759 0.271 1.393 0.814 1.89 0.535 0.498 1.243 0.767 1.974 0.752 0.663 0 1.277-0.151 1.848-0.454 0.562-0.294 1.048-0.714 1.421-1.227 0.812-1.114 1.392-2.382 1.703-3.725 0.161-0.707 0.285-1.378 0.362-2.009 0.082-0.635 0.117-1.234 0.117-1.803 0-2.088-0.663-3.715-1.981-4.88-1.324-1.165-3.049-1.745-5.17-1.745-2.413 0-4.43 0.78-6.046 2.346-1.617 1.56-2.431 3.544-2.431 5.95 0 0.531 0.080 1.043 0.233 1.539 0.149 0.494 0.311 0.887 0.487 1.179 0.174 0.286 0.338 0.566 0.487 0.824 0.151 0.258 0.229 0.442 0.229 0.552 0 0.338-0.089 0.779-0.268 1.323-0.186 0.544-0.405 0.815-0.67 0.815-0.025 0-0.129-0.018-0.31-0.057-0.626-0.187-1.192-0.536-1.639-1.013-0.475-0.494-0.849-1.075-1.103-1.711-0.253-0.634-0.45-1.289-0.589-1.957-0.15-0.632-0.224-1.28-0.221-1.93z"></path>
</symbol>
<symbol id="icon-ic-twitter" viewBox="0 0 38 32">
<path fill="#fff" style="fill: var(--color1, #fff)" opacity="0.8" d="M37.918 4.174c-1.33 0.574-2.776 0.986-4.267 1.147 1.547-0.919 2.706-2.371 3.259-4.084-1.452 0.864-3.043 1.469-4.701 1.79-0.693-0.741-1.532-1.332-2.463-1.734s-1.936-0.61-2.951-0.607c-4.106 0-7.408 3.328-7.408 7.413 0 0.574 0.070 1.147 0.183 1.699-6.148-0.322-11.631-3.259-15.277-7.756-0.664 1.135-1.012 2.426-1.008 3.741 0 2.572 1.308 4.84 3.302 6.174-1.175-0.046-2.323-0.369-3.35-0.943v0.091c0 3.602 2.546 6.587 5.94 7.273-0.637 0.166-1.293 0.25-1.951 0.252-0.482 0-0.939-0.048-1.399-0.113 0.939 2.937 3.671 5.071 6.926 5.14-2.546 1.994-5.735 3.168-9.198 3.168-0.621 0-1.195-0.022-1.79-0.091 3.285 2.107 7.182 3.324 11.379 3.324 13.626 0 21.082-11.288 21.082-21.086 0-0.322 0-0.643-0.022-0.965 1.442-1.056 2.707-2.364 3.715-3.832z"></path>
</symbol>
    <symbol id="icon-logo" viewBox="0 0 32 32">
        <path   d="M25.578 8.829c0.538-0.144 1.014-0.461 1.354-0.903s0.526-0.982 0.528-1.54v-0.007c0-0.67-0.266-1.312-0.74-1.786s-1.116-0.74-1.786-0.74h-0.006c-0.557 0.002-1.098 0.188-1.539 0.528s-0.759 0.816-0.903 1.354c-0.413 1.494-1.304 2.812-2.538 3.751s-2.741 1.448-4.291 1.448-3.058-0.509-4.291-1.448c-1.233-0.939-2.125-2.257-2.537-3.751-0.144-0.538-0.462-1.014-0.903-1.354s-0.982-0.526-1.54-0.528h-0.007c-0.67 0-1.312 0.266-1.786 0.74s-0.74 1.116-0.74 1.786v0.007c0.002 0.557 0.188 1.098 0.528 1.539s0.816 0.759 1.354 0.903c1.494 0.413 2.812 1.304 3.751 2.537s1.448 2.741 1.448 4.291-0.509 3.058-1.448 4.291c-0.939 1.234-2.257 2.125-3.751 2.537-0.538 0.144-1.014 0.462-1.354 0.903s-0.526 0.982-0.528 1.539v0.007c0 0.67 0.266 1.312 0.74 1.786s1.116 0.74 1.786 0.74h0.007c0.557-0.002 1.098-0.188 1.539-0.528s0.759-0.816 0.903-1.354c0.413-1.494 1.304-2.812 2.538-3.751s2.741-1.448 4.291-1.448c1.55 0 3.058 0.509 4.291 1.448s2.125 2.257 2.537 3.751c0.144 0.538 0.461 1.014 0.903 1.354s0.982 0.526 1.54 0.528h0.007c0.67 0 1.312-0.266 1.786-0.74s0.74-1.116 0.74-1.786v-0.007c-0.002-0.557-0.188-1.098-0.528-1.539s-0.816-0.759-1.354-0.903c-1.494-0.413-2.812-1.304-3.751-2.538s-1.448-2.741-1.448-4.291c0-1.55 0.508-3.058 1.448-4.291s2.257-2.125 3.751-2.538l-0 0z"></path>
        <path   d="M25.578 8.829c0.538-0.144 1.014-0.461 1.354-0.903s0.526-0.982 0.528-1.54v-0.007c0-0.67-0.266-1.312-0.74-1.786s-1.116-0.74-1.786-0.74h-0.006c-0.557 0.002-1.098 0.188-1.539 0.528s-0.759 0.816-0.903 1.354c-0.413 1.494-1.304 2.812-2.538 3.751s-2.741 1.448-4.291 1.448-3.058-0.509-4.291-1.448c-1.233-0.939-2.125-2.257-2.537-3.751-0.144-0.538-0.462-1.014-0.903-1.354s-0.982-0.526-1.54-0.528h-0.007c-0.67 0-1.312 0.266-1.786 0.74s-0.74 1.116-0.74 1.786v0.007c0.002 0.557 0.188 1.098 0.528 1.539s0.816 0.759 1.354 0.903c1.494 0.413 2.812 1.304 3.751 2.537s1.448 2.741 1.448 4.291-0.509 3.058-1.448 4.291c-0.939 1.234-2.257 2.125-3.751 2.537-0.538 0.144-1.014 0.462-1.354 0.903s-0.526 0.982-0.528 1.539v0.007c0 0.67 0.266 1.312 0.74 1.786s1.116 0.74 1.786 0.74h0.007c0.557-0.002 1.098-0.188 1.539-0.528s0.759-0.816 0.903-1.354c0.413-1.494 1.304-2.812 2.538-3.751s2.741-1.448 4.291-1.448c1.55 0 3.058 0.509 4.291 1.448s2.125 2.257 2.537 3.751c0.144 0.538 0.461 1.014 0.903 1.354s0.982 0.526 1.54 0.528h0.007c0.67 0 1.312-0.266 1.786-0.74s0.74-1.116 0.74-1.786v-0.007c-0.002-0.557-0.188-1.098-0.528-1.539s-0.816-0.759-1.354-0.903c-1.494-0.413-2.812-1.304-3.751-2.538s-1.448-2.741-1.448-4.291c0-1.55 0.508-3.058 1.448-4.291s2.257-2.125 3.751-2.538l-0 0z"></path>
        <path   d="M3.304 1.496c0.081 0.081 0.186 0.134 0.299 0.153s0.229 0.002 0.332-0.049c0.939-0.454 1.996-0.605 3.025-0.432s1.979 0.659 2.719 1.394c0.102 0.103 0.24 0.162 0.385 0.165s0.285-0.050 0.392-0.148c0.053-0.051 0.095-0.111 0.125-0.178s0.045-0.139 0.046-0.213-0.013-0.146-0.041-0.214c-0.028-0.068-0.068-0.129-0.12-0.181-0.903-0.9-2.063-1.498-3.32-1.709s-2.549-0.026-3.696 0.531c-0.078 0.039-0.146 0.096-0.198 0.166s-0.086 0.152-0.1 0.238c-0.014 0.086-0.007 0.174 0.020 0.257s0.073 0.158 0.135 0.22z"></path>
        <path   d="M3.304 1.496c0.081 0.081 0.186 0.134 0.299 0.153s0.229 0.002 0.332-0.049c0.939-0.454 1.996-0.605 3.025-0.432s1.979 0.659 2.719 1.394c0.102 0.103 0.24 0.162 0.385 0.165s0.285-0.050 0.392-0.148c0.053-0.051 0.095-0.111 0.125-0.178s0.045-0.139 0.046-0.213-0.013-0.146-0.041-0.214c-0.028-0.068-0.068-0.129-0.12-0.181-0.903-0.9-2.063-1.498-3.32-1.709s-2.549-0.026-3.696 0.531c-0.078 0.039-0.146 0.096-0.198 0.166s-0.086 0.152-0.1 0.238c-0.014 0.086-0.007 0.174 0.020 0.257s0.073 0.158 0.135 0.22z"></path>
        <path   d="M0.618 3.443c-0.556 1.143-0.743 2.431-0.535 3.686s0.799 2.413 1.693 3.317c0.094 0.099 0.221 0.16 0.356 0.173s0.272-0.024 0.382-0.104c0.063-0.047 0.115-0.108 0.152-0.177s0.060-0.145 0.065-0.224c0.005-0.078-0.006-0.157-0.034-0.231s-0.071-0.14-0.126-0.196c-0.739-0.74-1.229-1.692-1.402-2.723s-0.022-2.091 0.433-3.032c0.051-0.103 0.068-0.219 0.049-0.333s-0.072-0.218-0.153-0.3c-0.062-0.062-0.137-0.108-0.22-0.135s-0.171-0.034-0.257-0.020c-0.086 0.014-0.168 0.048-0.238 0.1s-0.127 0.12-0.166 0.198z"></path>
        <path   d="M0.618 3.443c-0.556 1.143-0.743 2.431-0.535 3.686s0.799 2.413 1.693 3.317c0.094 0.099 0.221 0.16 0.356 0.173s0.272-0.024 0.382-0.104c0.063-0.047 0.115-0.108 0.152-0.177s0.060-0.145 0.065-0.224c0.005-0.078-0.006-0.157-0.034-0.231s-0.071-0.14-0.126-0.196c-0.739-0.74-1.229-1.692-1.402-2.723s-0.022-2.091 0.433-3.032c0.051-0.103 0.068-0.219 0.049-0.333s-0.072-0.218-0.153-0.3c-0.062-0.062-0.137-0.108-0.22-0.135s-0.171-0.034-0.257-0.020c-0.086 0.014-0.168 0.048-0.238 0.1s-0.127 0.12-0.166 0.198z"></path>
        <path   d="M27.38 29.715c-0.94 0.454-1.997 0.605-3.026 0.432s-1.979-0.66-2.719-1.395c-0.102-0.102-0.239-0.161-0.384-0.165s-0.284 0.049-0.391 0.147c-0.053 0.050-0.096 0.111-0.125 0.178s-0.045 0.14-0.046 0.213c-0.001 0.073 0.013 0.146 0.041 0.214s0.069 0.13 0.12 0.182c0.903 0.9 2.063 1.497 3.32 1.709s2.549 0.026 3.696-0.531c0.078-0.039 0.146-0.096 0.198-0.166s0.086-0.152 0.1-0.238c0.014-0.086 0.007-0.174-0.020-0.257s-0.073-0.158-0.135-0.22c-0.081-0.081-0.186-0.134-0.299-0.153s-0.229-0.002-0.332 0.048z"></path>
        <path   d="M27.38 29.715c-0.94 0.454-1.997 0.605-3.026 0.432s-1.979-0.66-2.719-1.395c-0.102-0.102-0.239-0.161-0.384-0.165s-0.284 0.049-0.391 0.147c-0.053 0.050-0.096 0.111-0.125 0.178s-0.045 0.14-0.046 0.213c-0.001 0.073 0.013 0.146 0.041 0.214s0.069 0.13 0.12 0.182c0.903 0.9 2.063 1.497 3.32 1.709s2.549 0.026 3.696-0.531c0.078-0.039 0.146-0.096 0.198-0.166s0.086-0.152 0.1-0.238c0.014-0.086 0.007-0.174-0.020-0.257s-0.073-0.158-0.135-0.22c-0.081-0.081-0.186-0.134-0.299-0.153s-0.229-0.002-0.332 0.048z"></path>
        <path   d="M28.734 20.861c-0.098 0.106-0.15 0.246-0.147 0.391s0.062 0.282 0.165 0.384c0.736 0.741 1.223 1.692 1.395 2.721s0.020 2.088-0.435 3.027c-0.050 0.103-0.067 0.219-0.049 0.332s0.072 0.218 0.153 0.299c0.061 0.062 0.137 0.108 0.22 0.135s0.171 0.034 0.257 0.020c0.086-0.014 0.168-0.048 0.238-0.1s0.127-0.119 0.166-0.197c0.558-1.147 0.745-2.44 0.534-3.699s-0.808-2.42-1.709-3.324c-0.052-0.052-0.114-0.093-0.182-0.121s-0.141-0.042-0.214-0.041c-0.074 0.001-0.146 0.017-0.213 0.046s-0.128 0.072-0.178 0.125z"></path>
        <path   d="M28.734 20.861c-0.098 0.106-0.15 0.246-0.147 0.391s0.062 0.282 0.165 0.384c0.736 0.741 1.223 1.692 1.395 2.721s0.020 2.088-0.435 3.027c-0.050 0.103-0.067 0.219-0.049 0.332s0.072 0.218 0.153 0.299c0.061 0.062 0.137 0.108 0.22 0.135s0.171 0.034 0.257 0.020c0.086-0.014 0.168-0.048 0.238-0.1s0.127-0.119 0.166-0.197c0.558-1.147 0.745-2.44 0.534-3.699s-0.808-2.42-1.709-3.324c-0.052-0.052-0.114-0.093-0.182-0.121s-0.141-0.042-0.214-0.041c-0.074 0.001-0.146 0.017-0.213 0.046s-0.128 0.072-0.178 0.125z"></path>
        <path   d="M29.714 3.933c0.454 0.94 0.606 1.997 0.434 3.026s-0.66 1.98-1.395 2.72c-0.102 0.102-0.161 0.239-0.165 0.384s0.049 0.284 0.147 0.391c0.050 0.053 0.111 0.096 0.178 0.125s0.14 0.045 0.213 0.046c0.073 0.001 0.146-0.013 0.214-0.040s0.13-0.069 0.182-0.12c0.901-0.903 1.498-2.064 1.709-3.322s0.025-2.55-0.532-3.698c-0.039-0.078-0.096-0.146-0.166-0.197s-0.152-0.086-0.238-0.1-0.174-0.007-0.257 0.020c-0.083 0.027-0.158 0.073-0.22 0.135-0.081 0.081-0.134 0.186-0.153 0.299s-0.002 0.229 0.049 0.332z"></path>
        <path   d="M29.714 3.933c0.454 0.94 0.606 1.997 0.434 3.026s-0.66 1.98-1.395 2.72c-0.102 0.102-0.161 0.239-0.165 0.384s0.049 0.284 0.147 0.391c0.050 0.053 0.111 0.096 0.178 0.125s0.14 0.045 0.213 0.046c0.073 0.001 0.146-0.013 0.214-0.040s0.13-0.069 0.182-0.12c0.901-0.903 1.498-2.064 1.709-3.322s0.025-2.55-0.532-3.698c-0.039-0.078-0.096-0.146-0.166-0.197s-0.152-0.086-0.238-0.1-0.174-0.007-0.257 0.020c-0.083 0.027-0.158 0.073-0.22 0.135-0.081 0.081-0.134 0.186-0.153 0.299s-0.002 0.229 0.049 0.332z"></path>
        <path   d="M21.636 2.563c0.74-0.736 1.691-1.223 2.72-1.396s2.087-0.021 3.027 0.433c0.103 0.050 0.219 0.067 0.332 0.049s0.218-0.072 0.299-0.153c0.062-0.061 0.108-0.137 0.135-0.22s0.034-0.171 0.020-0.257c-0.014-0.086-0.048-0.168-0.1-0.238s-0.119-0.127-0.198-0.166c-1.148-0.557-2.44-0.743-3.698-0.532s-2.419 0.808-3.322 1.709c-0.052 0.052-0.093 0.114-0.12 0.182s-0.041 0.141-0.041 0.214c0.001 0.073 0.017 0.146 0.046 0.213s0.072 0.128 0.125 0.178c0.106 0.098 0.246 0.15 0.391 0.147s0.282-0.062 0.384-0.165z"></path>
        <path   d="M21.636 2.563c0.74-0.736 1.691-1.223 2.72-1.396s2.087-0.021 3.027 0.433c0.103 0.050 0.219 0.067 0.332 0.049s0.218-0.072 0.299-0.153c0.062-0.061 0.108-0.137 0.135-0.22s0.034-0.171 0.020-0.257c-0.014-0.086-0.048-0.168-0.1-0.238s-0.119-0.127-0.198-0.166c-1.148-0.557-2.44-0.743-3.698-0.532s-2.419 0.808-3.322 1.709c-0.052 0.052-0.093 0.114-0.12 0.182s-0.041 0.141-0.041 0.214c0.001 0.073 0.017 0.146 0.046 0.213s0.072 0.128 0.125 0.178c0.106 0.098 0.246 0.15 0.391 0.147s0.282-0.062 0.384-0.165z"></path>
        <path   d="M9.68 28.752c-0.741 0.736-1.691 1.223-2.72 1.395s-2.087 0.021-3.026-0.434c-0.103-0.050-0.219-0.067-0.332-0.049s-0.218 0.072-0.299 0.153c-0.062 0.061-0.108 0.137-0.135 0.22s-0.034 0.171-0.020 0.257c0.014 0.086 0.048 0.168 0.1 0.238s0.119 0.127 0.197 0.166c1.147 0.557 2.44 0.743 3.698 0.532s2.419-0.808 3.322-1.709c0.052-0.052 0.093-0.114 0.12-0.182s0.041-0.141 0.040-0.214c-0.001-0.073-0.017-0.146-0.046-0.213s-0.072-0.128-0.125-0.178c-0.106-0.098-0.246-0.15-0.391-0.147s-0.282 0.062-0.383 0.165z"></path>
        <path   d="M9.68 28.752c-0.741 0.736-1.691 1.223-2.72 1.395s-2.087 0.021-3.026-0.434c-0.103-0.050-0.219-0.067-0.332-0.049s-0.218 0.072-0.299 0.153c-0.062 0.061-0.108 0.137-0.135 0.22s-0.034 0.171-0.020 0.257c0.014 0.086 0.048 0.168 0.1 0.238s0.119 0.127 0.197 0.166c1.147 0.557 2.44 0.743 3.698 0.532s2.419-0.808 3.322-1.709c0.052-0.052 0.093-0.114 0.12-0.182s0.041-0.141 0.040-0.214c-0.001-0.073-0.017-0.146-0.046-0.213s-0.072-0.128-0.125-0.178c-0.106-0.098-0.246-0.15-0.391-0.147s-0.282 0.062-0.383 0.165z"></path>
        <path   d="M1.601 27.382c-0.454-0.94-0.606-1.997-0.434-3.027s0.66-1.98 1.396-2.72c0.102-0.102 0.161-0.239 0.165-0.384s-0.049-0.284-0.147-0.391c-0.050-0.053-0.111-0.096-0.178-0.125s-0.14-0.045-0.213-0.046c-0.073-0.001-0.146 0.013-0.214 0.041s-0.13 0.069-0.182 0.12c-0.901 0.903-1.498 2.064-1.709 3.322s-0.025 2.55 0.532 3.698c0.039 0.078 0.096 0.146 0.166 0.198s0.152 0.086 0.238 0.1c0.086 0.014 0.174 0.007 0.257-0.020s0.158-0.073 0.22-0.135c0.081-0.081 0.134-0.186 0.153-0.299s0.002-0.229-0.049-0.332z"></path>
        <path   d="M1.601 27.382c-0.454-0.94-0.606-1.997-0.434-3.027s0.66-1.98 1.396-2.72c0.102-0.102 0.161-0.239 0.165-0.384s-0.049-0.284-0.147-0.391c-0.050-0.053-0.111-0.096-0.178-0.125s-0.14-0.045-0.213-0.046c-0.073-0.001-0.146 0.013-0.214 0.041s-0.13 0.069-0.182 0.12c-0.901 0.903-1.498 2.064-1.709 3.322s-0.025 2.55 0.532 3.698c0.039 0.078 0.096 0.146 0.166 0.198s0.152 0.086 0.238 0.1c0.086 0.014 0.174 0.007 0.257-0.020s0.158-0.073 0.22-0.135c0.081-0.081 0.134-0.186 0.153-0.299s0.002-0.229-0.049-0.332z"></path>
    </symbol>
</defs>
</svg>
